PathFileType	4	(X/Y/Z)	s02c0103.trc
DataRate	CameraRate	NumFrames	NumMarkers	Units	OrigDataRate	OrigDataStartFrame	OrigNumFrames
200	200	4	50	mm	200	0	2000
Frame#	Time	racr			lacr			c7			jug			rlel			rdr			llel			ldr			s2			lic			ric			lasi			rasi			rpsi			lpsi			rgt			lgt			rth1			rth2			rth3			rth4			rlfc			rmfc			rsh1			rsh2			rsh3			rsh4			rlmal			rmmal			rtoe			rmt5			rmt1			lth1			lth2			lth4			lth3			llfc			lmfc			lsh1			lsh2			lsh3			lsh4			llmal			lmmal			lcal			ltoe			lmt5			SBIKE			LBIKE			RBIKE			
		X1	Y1	Z1	X2	Y2	Z2	X3	Y3	Z3	X4	Y4	Z4	X5	Y5	Z5	X6	Y6	Z6	X7	Y7	Z7	X8	Y8	Z8	X9	Y9	Z9	X10	Y10	Z10	X11	Y11	Z11	X12	Y12	Z12	X13	Y13	Z13	X14	Y14	Z14	X15	Y15	Z15	X16	Y16	Z16	X17	Y17	Z17	X18	Y18	Z18	X19	Y19	Z19	X20	Y20	Z20	X21	Y21	Z21	X22	Y22	Z22	X23	Y23	Z23	X24	Y24	Z24	X25	Y25	Z25	X26	Y26	Z26	X27	Y27	Z27	X28	Y28	Z28	X29	Y29	Z29	X30	Y30	Z30	X31	Y31	Z31	X32	Y32	Z32	X33	Y33	Z33	X34	Y34	Z34	X35	Y35	Z35	X36	Y36	Z36	X37	Y37	Z37	X38	Y38	Z38	X39	Y39	Z39	X40	Y40	Z40	X41	Y41	Z41	X42	Y42	Z42	X43	Y43	Z43	X44	Y44	Z44	X45	Y45	Z45	X46	Y46	Z46	X47	Y47	Z47	X48	Y48	Z48	X49	Y49	Z49	X50	Y50	Z50	
0	0.0000	479.311430	1279.690361	-138.334026	503.825193	1288.308279	-480.501439	512.480775	1302.972366	-314.146634	445.207938	1185.438989	-312.349422	590.198268	1033.084234	-118.868201	710.017669	835.119409	-143.509258	577.517639	1023.832266	-531.556027	707.185155	830.072691	-486.518063	-2.755588	1118.338879	-333.499526	0.000000	0.000000	-0.000000	121.607709	1105.357973	-186.640947	182.537201	1051.278149	-445.903464	171.962027	1082.675294	-217.553314	10.842408	1143.832011	-294.238965	24.710761	1145.874526	-380.996365	89.384011	1040.657760	-143.129474	78.026267	1003.532816	-505.768003	176.119297	1010.210712	-139.260582	262.902372	994.956703	-146.596783	332.369255	950.385351	-122.212370	273.390173	1016.985576	-175.272290	450.678294	858.357022	-152.552667	447.775370	837.329056	-265.202629	443.028886	744.581175	-136.488310	435.006922	656.678649	-155.707936	391.789570	582.922226	-149.524315	448.421607	656.022833	-191.770350	344.954256	472.999697	-155.857843	353.307153	494.378832	-234.933065	556.231878	410.785402	-193.430760	447.002388	396.191196	-137.364834	475.035376	410.178453	-244.046755	184.531290	909.919524	-520.306349	256.279854	860.651105	-516.747326	280.652403	881.683585	-498.819560	292.501269	779.412511	-515.497134	349.985857	694.725866	-491.510934	351.053912	667.790750	-386.780440	298.620122	603.876334	-508.667061	261.863803	529.034854	-489.683558	187.317620	476.029686	-493.553194	276.462134	519.627244	-453.776087	105.824719	411.220843	-475.487231	121.210291	400.430181	-399.451939	26.848752	404.216268	-433.458578	243.345259	217.544529	-445.644086	144.297114	265.083506	-503.188994	-129.395489	869.329424	-314.607582	32.707613	82.082295	-515.380236	33.456932	81.461248	-115.054844	
1	0.0050	479.421636	1279.735747	-138.448685	503.917622	1288.389043	-480.450856	512.503726	1302.925497	-314.229745	445.258246	1185.385573	-312.455331	590.308939	1033.118608	-118.887851	710.058008	835.106587	-143.474813	577.644360	1023.901792	-531.604134	707.209399	830.072032	-486.495715	-2.858625	1118.505543	-333.215542	0.000000	0.000000	-0.000000	121.682131	1105.241119	-186.644606	182.396154	1051.326219	-446.074141	171.932977	1082.583950	-217.627249	10.763682	1143.933659	-293.977638	24.578177	1145.957018	-380.719994	89.352067	1040.579358	-143.077328	77.858106	1003.830643	-505.784727	176.070372	1010.121557	-139.279518	262.839931	994.875897	-146.631269	332.285509	950.281168	-122.288782	273.297804	1016.922966	-175.291841	450.545417	858.254429	-152.719550	447.533056	837.254078	-265.338504	442.834778	744.530110	-136.653582	434.578684	656.618431	-155.865981	391.273526	582.894649	-149.564938	447.985514	655.938740	-191.936556	344.231268	472.960948	-155.944245	352.500334	494.441303	-235.002785	555.725533	411.785237	-193.432144	446.548118	396.717538	-137.385215	474.503866	410.798205	-244.165459	184.507574	910.290599	-520.224597	256.261534	861.057985	-516.703199	280.622986	882.082847	-498.774049	292.461721	779.848151	-515.549425	349.985784	694.919932	-491.576720	351.211817	667.989778	-386.795250	299.010053	603.823887	-508.717933	262.404043	528.899445	-489.743202	187.957517	475.624495	-493.627590	276.978070	519.581720	-453.761163	106.493936	410.677787	-475.717339	121.834901	399.944923	-399.626370	27.580341	403.963775	-433.583271	243.554056	216.637246	-445.692438	144.646182	264.424462	-503.246815	-129.408802	869.323398	-314.605765	32.708228	82.061893	-515.402099	33.480182	81.444506	-115.034224	
2	0.0100	479.530057	1279.779989	-138.596386	503.991403	1288.493943	-480.390249	512.527072	1302.884883	-314.309587	445.350202	1185.338224	-312.607529	590.422902	1033.137845	-118.949576	710.097420	835.105837	-143.455817	577.774091	1023.970912	-531.656842	707.228443	830.086864	-486.523602	-2.975031	1118.547160	-332.964959	0.000000	0.000000	-0.000000	121.697554	1105.142467	-186.618869	182.286417	1051.392445	-446.220589	171.902554	1082.487389	-217.683563	10.645119	1144.032220	-293.692283	24.476440	1146.041602	-380.469579	89.300845	1040.519533	-143.008633	77.747944	1004.068318	-505.777354	175.998622	1010.080526	-139.267361	262.773732	994.835245	-146.680418	332.239939	950.222209	-122.400593	273.215891	1016.901176	-175.361755	450.441927	858.202614	-152.900838	447.319730	837.220628	-265.478537	442.671905	744.500391	-136.820747	434.279510	656.591448	-155.992423	390.868502	582.982937	-149.645238	447.675428	655.881926	-192.068243	343.632285	472.995631	-155.998451	351.865976	494.522638	-235.047536	555.306873	412.573304	-193.455276	446.190773	397.081265	-137.410960	474.121351	411.315095	-244.132502	184.514702	910.734810	-520.141039	256.238408	861.395642	-516.680950	280.638642	882.408353	-498.738452	292.425385	780.162255	-515.603337	349.962358	695.007585	-491.624983	351.265909	668.097816	-386.794592	299.308834	603.738581	-508.771444	262.825702	528.741772	-489.773442	188.536958	475.303374	-493.772600	277.312629	519.497645	-453.743581	107.045714	410.222319	-475.936745	122.477960	399.487235	-399.792414	28.133407	403.717380	-433.705142	243.686576	215.900314	-445.646235	144.904897	263.899251	-503.268177	-129.415063	869.325491	-314.617692	32.710722	82.066237	-515.406126	33.148181	81.659886	-115.216577	
3	0.0150	479.626276	1279.830278	-138.708692	504.060115	1288.572444	-480.347100	512.515793	1302.817032	-314.391177	445.406540	1185.284035	-312.760118	588.946826	1032.070694	-117.455341	710.132959	835.085043	-143.474655	578.019227	1024.129908	-531.356398	707.204643	830.329053	-487.271293	-3.186295	1119.322255	-332.635472	0.000000	0.000000	-0.000000	121.257768	1104.387968	-187.818970	182.175697	1051.455352	-446.327722	171.870628	1082.401379	-217.733806	9.976386	1144.241540	-293.304407	25.667967	1145.222973	-381.199450	89.219562	1040.448615	-142.938174	77.692839	1004.253730	-505.757798	175.961588	1010.071965	-139.255151	262.606404	994.645538	-146.940164	332.176373	950.222610	-122.501427	273.195676	1016.938667	-175.381011	450.563101	858.103430	-152.991951	447.145441	837.247573	-265.622048	442.523052	744.515510	-136.927571	432.833291	656.103472	-156.698241	390.663430	583.064757	-149.718443	445.985723	655.115537	-192.505103	342.747450	473.909480	-155.414808	351.513318	494.460306	-235.360334	555.094225	413.099845	-193.536723	446.285303	397.230930	-137.501038	473.859599	411.752589	-244.154083	184.576340	911.041265	-520.036489	256.249501	861.625894	-516.635935	280.745593	882.590759	-498.706708	292.396000	780.373212	-515.643072	350.127161	694.859841	-491.825041	351.312678	668.101465	-386.817099	299.750141	603.435439	-508.936979	262.313805	527.590727	-490.533228	188.862824	475.058034	-493.937844	277.527091	519.339194	-453.730005	107.526312	409.785742	-476.145591	122.886730	399.180998	-399.955837	28.581664	403.478514	-433.800128	243.835837	215.324109	-445.630820	145.044464	263.327591	-503.384044	-129.392041	869.287313	-314.649118	32.711955	82.074583	-515.400960	33.466156	81.447874	-115.032086	
